<?xml version="1.0" encoding="UTF-8"?>
<svg width="32px" height="32px" viewBox="0 0 32 32" version="1.1" xmlns="http://www.w3.org/2000/svg" xmlns:xlink="http://www.w3.org/1999/xlink">
    <title>Icon-App-Name.iconset/icon_32x32</title>
    <defs>
        <path d="M28,8.72033718 C28,8.38794034 28,8.05550951 27.9980937,7.72307868 C27.9964287,7.44304572 27.9932006,7.16308072 27.985589,6.88318368 C27.9691425,6.2731325 27.9331573,5.65784833 27.8246581,5.05459325 C27.7146298,4.44263917 27.5349418,3.8730927 27.2517837,3.31707045 C26.9734168,2.77056273 26.6097933,2.27047232 26.1759325,1.83691564 C25.7421735,1.40335897 25.2419491,1.03997194 24.6952395,0.761773926 C24.1386417,0.478546801 23.5684857,0.298926096 22.9558544,0.188931351 C22.3525336,0.0806016483 21.7370818,0.0446843033 21.1270329,0.0282037808 C20.8469331,0.0206261385 20.5668332,0.0174319754 20.2866654,0.015698972 C19.9540659,0.0136601444 19.6214664,0.0138300467 19.2888669,0.0138300467 L15.4270703,0 L12.5387421,0 L8.74527993,0.0138300467 C8.41203482,0.0138300467 8.07878972,0.0136601444 7.74554461,0.015698972 C7.46479912,0.0174319754 7.18418954,0.0206261385 6.90354599,0.0282037808 C6.29206993,0.0446843033 5.67522498,0.0806356288 5.07047703,0.189101253 C4.45703012,0.299062018 3.88602463,0.478614762 3.32867924,0.761638004 C2.78081437,1.03987 2.27950254,1.40329101 1.84482615,1.83691564 C1.41021772,2.27043834 1.04591459,2.77042681 0.767038012,3.31683258 C0.483098366,3.87312668 0.303070572,4.44301295 0.192770418,5.05530684 C0.0841692799,5.65832406 0.0481841094,6.27340434 0.0316356882,6.88318368 C0.0240920547,7.1631147 0.0208299429,7.4430797 0.0191309264,7.72307868 C0.0170921065,8.05554349 0,8.468508 0,8.80093883 L0,12.5418475 L0,15.4611088 L0.0172620082,19.2814978 C0.0172620082,19.6143703 0.0171260868,19.9472429 0.0191309264,20.2801155 C0.0208299429,20.5605222 0.0240920547,20.840861 0.0316696685,21.1211658 C0.0481841094,21.7319985 0.0842372406,22.3481662 0.192940319,22.9522368 C0.303206494,23.5650064 0.483200307,24.1353684 0.76690209,24.6921043 C1.04581265,25.2393935 1.41018374,25.7401296 1.84482615,26.1742979 C2.27946856,26.6084662 2.78064447,26.972329 3.3284074,27.2509348 C3.88609259,27.5345357 4.45736992,27.7143942 5.07119062,27.8245249 C5.67566673,27.9330245 6.29230779,27.9690098 6.90354599,27.9854903 C7.18418954,27.993068 7.4648331,27.9962961 7.74557859,27.9979952 C8.0788237,28 8.41203482,28 8.74527993,28 L12.5730283,28 L15.4685263,28 L19.2888669,28 C19.6214664,28 19.9540659,28 20.2866654,27.9979952 C20.5668332,27.9962961 20.8469331,27.993068 21.1270329,27.9854903 C21.7373197,27.9689758 22.3529753,27.9329566 22.9565679,27.824389 C23.5688255,27.7142583 24.1387097,27.5344677 24.6950017,27.2510367 C25.2418132,26.9724649 25.7421396,26.6085342 26.1759325,26.1742979 C26.6097254,25.7401975 26.9733149,25.2395295 27.2516818,24.6923421 C27.5350098,24.1353345 27.7146978,23.5647006 27.824794,22.9515232 C27.9331913,22.3476905 27.9691425,21.7317607 27.9856229,21.1211658 C27.9932006,20.840827 27.9964287,20.5604883 27.9980937,20.2801155 C28,19.9472429 28,19.6143703 28,19.2814978 C28,19.2814978 28,15.52856 28,15.4611088 L28,12.5387893 C28,12.4889739 28,8.72033718 28,8.72033718" id="path-1"></path>
        <filter x="-7.1%" y="-3.6%" width="114.3%" height="114.3%" filterUnits="objectBoundingBox" id="filter-3">
            <feOffset dx="0" dy="1" in="SourceAlpha" result="shadowOffsetOuter1"></feOffset>
            <feGaussianBlur stdDeviation="0.5" in="shadowOffsetOuter1" result="shadowBlurOuter1"></feGaussianBlur>
            <feColorMatrix values="0 0 0 0 0   0 0 0 0 0   0 0 0 0 0  0 0 0 0.3 0" type="matrix" in="shadowBlurOuter1"></feColorMatrix>
        </filter>
        <rect id="path-4" x="14.0339806" y="3.80582524" width="10.1941748" height="10.1941748"></rect>
        <mask id="mask-5" maskContentUnits="userSpaceOnUse" maskUnits="objectBoundingBox" x="0" y="0" width="10.1941748" height="10.1941748" fill="white">
            <use xlink:href="#path-4"></use>
        </mask>
    </defs>
    <g id="Template---Icons---App" stroke="none" stroke-width="1" fill="none" fill-rule="evenodd">
        <g id="App-Icons---@1x" transform="translate(-410, 0)">
            <g id="32x32" transform="translate(410, 0)">
                <g id="Artwork" transform="translate(2, 2)">
                    <mask id="mask-2" fill="white">
                        <use xlink:href="#path-1"></use>
                    </mask>
                    <g id="Mask">
                        <use fill="black" fill-opacity="1" filter="url(#filter-3)" xlink:href="#path-1"></use>
                        <use fill="#FFFFFF" fill-rule="evenodd" xlink:href="#path-1"></use>
                    </g>
                    <g id="Icon-Center-Image-Artwork" mask="url(#mask-2)">
                        <g id="アオボシ" transform="translate(5.1277, 4.8456)" fill-rule="nonzero">
                            <path d="M0.0305825243,1.47815534 C0.0305825243,1.55970874 0.163106796,1.74320388 0.40776699,1.95728155 C0.458737864,1.99805825 0.509708738,2.0184466 0.570873786,2.0184466 C0.62184466,2.0184466 0.662621359,2.00825243 0.754368932,1.9776699 C1.01941748,1.90631068 1.24368932,1.87572816 1.63106796,1.81456311 C2.93592233,1.60048544 4.58737864,1.42718447 6.26941748,1.34563107 C6.35097087,1.34563107 6.37135922,1.36601942 6.37135922,1.40679612 C6.37135922,1.43737864 6.36116505,1.47815534 6.32038835,1.53932039 C6.00436893,2.00825243 5.3315534,2.69126214 4.75048544,3.21116505 C4.67912621,3.2723301 4.65873786,3.3131068 4.65873786,3.3538835 C4.65873786,3.42524272 4.73009709,3.47621359 4.80145631,3.47621359 C4.82184466,3.47621359 4.84223301,3.47621359 4.86262136,3.46601942 C5.56601942,3.12961165 6.43252427,2.42621359 7.03398058,1.88592233 C7.10533981,1.81456311 7.29902913,1.67184466 7.4315534,1.60048544 C7.50291262,1.55970874 7.56407767,1.49854369 7.56407767,1.41699029 C7.56407767,1.30485437 7.50291262,1.23349515 7.31941748,1.06019417 C7.09514563,0.846116505 6.85048544,0.733980583 6.75873786,0.733980583 C6.68737864,0.733980583 6.63640777,0.744174757 6.59563107,0.764563107 C6.54466019,0.795145631 6.39174757,0.825728155 6.20825243,0.83592233 C4.54660194,0.927669903 2.87475728,1.07038835 0.927669903,1.30485437 C0.744174757,1.32524272 0.499514563,1.34563107 0.142718447,1.35582524 C0.0713592233,1.35582524 0.0305825243,1.40679612 0.0305825243,1.47815534 Z M3.18058252,2.64029126 C3.3131068,2.79320388 3.36407767,2.99708738 3.36407767,3.2723301 C3.36407767,3.41504854 3.34368932,3.57815534 3.32330097,3.76165049 C3.25194175,4.30194175 3.1092233,4.93398058 2.87475728,5.55582524 C2.58932039,6.3407767 2.16116505,7.1461165 1.65145631,7.79854369 C1.62087379,7.83932039 1.61067961,7.86990291 1.61067961,7.90048544 C1.61067961,7.96165049 1.66165049,8.03300971 1.72281553,8.03300971 C1.75339806,8.03300971 1.79417476,8.02281553 1.83495146,7.99223301 C2.51796117,7.42135922 2.9868932,6.75873786 3.37427184,5.95339806 C3.69029126,5.2907767 3.91456311,4.54660194 4.06747573,3.68009709 C4.09805825,3.48640777 4.13883495,3.30291262 4.2,3.12961165 C4.22038835,3.07864078 4.23058252,3.03786408 4.23058252,2.99708738 C4.23058252,2.86456311 4.1592233,2.77281553 3.89417476,2.59951456 C3.73106796,2.49757282 3.37427184,2.39563107 3.29271845,2.39563107 C3.1907767,2.39563107 3.12961165,2.44660194 3.12961165,2.51796117 C3.12961165,2.54854369 3.13980583,2.59951456 3.18058252,2.64029126 Z" id="Shape" fill="#000000"></path>
                            <path d="M14.3228155,6.96262136 C14.3228155,7.05436893 14.3126214,7.08495146 14.2412621,7.08495146 C14.0985437,7.08495146 13.7723301,7.00339806 13.4665049,6.90145631 C13.4359223,6.89126214 13.4359223,6.89126214 13.415534,6.89126214 C13.3645631,6.89126214 13.3339806,6.93203883 13.3339806,6.99320388 C13.3339806,7.03398058 13.3543689,7.08495146 13.3951456,7.11553398 C13.7723301,7.41116505 14.118932,7.75776699 14.4043689,8.04320388 C14.4859223,8.12475728 14.5572816,8.15533981 14.638835,8.15533981 C14.7203883,8.15533981 14.7815534,8.11456311 14.8223301,8.06359223 C14.934466,7.90048544 14.9446602,7.74757282 14.9446602,7.5131068 C14.9446602,7.2684466 14.9446602,6.55485437 14.934466,6.12669903 C14.9242718,5.55582524 14.9140777,4.16941748 14.9140777,2.91553398 C15.576699,2.87475728 16.1883495,2.84417476 17.1669903,2.80339806 C17.5951456,2.78300971 17.6359223,2.76262136 17.6359223,2.59951456 C17.6359223,2.43640777 17.4932039,2.31407767 17.207767,2.21213592 C17.0752427,2.16116505 16.9529126,2.15097087 16.8509709,2.15097087 C16.7286408,2.15097087 16.6368932,2.17135922 16.565534,2.20194175 C16.4533981,2.25291262 16.2393204,2.3038835 16.0660194,2.31407767 C15.5053398,2.36504854 15.1995146,2.38543689 14.9140777,2.40582524 C14.9140777,2.00825243 14.9242718,1.64126214 14.9242718,1.34563107 C14.934466,0.958252427 14.9956311,0.825728155 15.0669903,0.723786408 C15.0873786,0.693203883 15.107767,0.632038835 15.107767,0.581067961 C15.107767,0.499514563 15.0873786,0.438349515 14.9140777,0.316019417 C14.6184466,0.101941748 14.292233,0 14.2004854,0 C14.118932,0 14.0679612,0.0611650485 14.0679612,0.132524272 C14.0679612,0.163106796 14.0781553,0.203883495 14.1087379,0.254854369 C14.1800971,0.377184466 14.2718447,0.683009709 14.2820388,0.917475728 C14.3024272,1.29466019 14.3126214,1.82475728 14.3126214,2.45679612 C13.2218447,2.54854369 12.3247573,2.65048544 11.3868932,2.74223301 C11.0300971,2.77281553 10.6529126,2.79320388 10.3878641,2.80339806 C10.2961165,2.81359223 10.2451456,2.82378641 10.2451456,2.87475728 C10.2451456,2.91553398 10.3470874,3.1092233 10.5,3.26213592 C10.5815534,3.34368932 10.6631068,3.37427184 10.734466,3.37427184 C10.7854369,3.37427184 10.8364078,3.36407767 10.8975728,3.3538835 C11.1014563,3.3131068 11.2951456,3.28252427 11.6723301,3.2315534 C12.3553398,3.13980583 12.9364078,3.0684466 14.0985437,2.96650485 C12.8140777,4.59757282 11.5194175,5.64757282 10.1737864,6.62621359 C10.1330097,6.65679612 10.1126214,6.69757282 10.1126214,6.72815534 C10.1126214,6.80970874 10.1635922,6.88106796 10.2349515,6.88106796 C10.2757282,6.88106796 10.3165049,6.86067961 10.3674757,6.84029126 C11.6417476,6.20825243 13.1300971,5.07669903 14.3228155,3.76165049 L14.3228155,6.96262136 Z" id="Path" fill="#0099F7"></path>
                            <path d="M6.83009709,10.907767 C6.49368932,10.6631068 6.04514563,10.561165 5.95339806,10.561165 C5.91262136,10.561165 5.89223301,10.5917476 5.89223301,10.6223301 C5.89223301,10.6427184 5.89223301,10.6529126 5.91262136,10.673301 C6.07572816,10.8160194 6.3407767,11.1320388 6.57524272,11.4174757 C6.78932039,11.6927184 6.89126214,11.7436893 6.97281553,11.7436893 C7.09514563,11.7436893 7.21747573,11.6213592 7.21747573,11.488835 C7.21747573,11.315534 7.08495146,11.1014563 6.83009709,10.907767 Z M7.53349515,10.2043689 C7.21747573,10.0004854 6.79951456,9.90873786 6.67718447,9.90873786 C6.63640777,9.90873786 6.60582524,9.92912621 6.60582524,9.95970874 C6.60582524,9.98009709 6.61601942,10.0004854 6.64660194,10.031068 C6.84029126,10.1941748 7.09514563,10.4592233 7.32961165,10.7140777 C7.53349515,10.9281553 7.61504854,11.0300971 7.72718447,11.0300971 C7.88009709,11.0300971 7.96165049,10.8975728 7.96165049,10.7140777 C7.96165049,10.6019417 7.79854369,10.3674757 7.53349515,10.2043689 Z M4.0368932,13.3033981 C4.87281553,13.2218447 5.97378641,13.1402913 6.87087379,13.1199029 C7.21747573,13.1097087 7.29902913,13.0587379 7.29902913,12.8446602 C7.29902913,12.6815534 7.09514563,12.5592233 6.87087379,12.4878641 C6.72815534,12.4368932 6.60582524,12.4165049 6.49368932,12.4165049 C6.4223301,12.4165049 6.3407767,12.4368932 6.24902913,12.4776699 C6.10631068,12.538835 5.92281553,12.5796117 5.70873786,12.6 C5.25,12.6407767 4.62815534,12.7019417 4.0368932,12.7631068 C4.04708738,12.3757282 4.04708738,12.0291262 4.05728155,11.8150485 C4.06747573,11.4378641 4.10825243,11.1830097 4.21019417,11.0300971 C4.2407767,10.9791262 4.26116505,10.9281553 4.26116505,10.8669903 C4.26116505,10.7650485 4.21019417,10.6834951 3.94514563,10.5203883 C3.73106796,10.3878641 3.46601942,10.2961165 3.3538835,10.2961165 C3.2723301,10.2961165 3.18058252,10.3368932 3.18058252,10.4184466 C3.18058252,10.4694175 3.21116505,10.5407767 3.25194175,10.6121359 C3.3538835,10.8160194 3.38446602,11.2849515 3.38446602,11.5907767 C3.38446602,11.9373786 3.39466019,12.365534 3.39466019,12.834466 C2.56893204,12.9364078 2.00825243,13.0179612 1.62087379,13.068932 C1.22330097,13.1199029 0.937864078,13.1606796 0.693203883,13.1912621 C0.438349515,13.2218447 0.224271845,13.242233 0.112135922,13.2524272 C0.040776699,13.2626214 0,13.2932039 0,13.3543689 C0,13.415534 0.152912621,13.6092233 0.316019417,13.7519417 C0.377184466,13.8131068 0.458737864,13.8436893 0.519902913,13.8436893 C0.560679612,13.8436893 0.601456311,13.8334951 0.64223301,13.823301 C0.805339806,13.7723301 0.917475728,13.7417476 1.07038835,13.711165 C1.88592233,13.5582524 2.72184466,13.4461165 3.39466019,13.3747573 C3.40485437,14.5368932 3.40485437,15.9029126 3.40485437,17.2485437 C3.40485437,17.3504854 3.37427184,17.381068 3.32330097,17.381068 C3.24174757,17.381068 2.90533981,17.2587379 2.64029126,17.1262136 C2.58932039,17.1058252 2.54854369,17.0956311 2.51796117,17.0956311 C2.45679612,17.0956311 2.40582524,17.1567961 2.40582524,17.2179612 C2.40582524,17.2587379 2.41601942,17.2893204 2.44660194,17.3199029 C2.78300971,17.6970874 3.15,18.0640777 3.43543689,18.3495146 C3.50679612,18.4208738 3.56796117,18.4820388 3.65970874,18.4820388 C3.72087379,18.4820388 3.83300971,18.4718447 3.93495146,18.3495146 C4.02669903,18.2373786 4.04708738,18.0029126 4.04708738,17.5849515 C4.04708738,17.1771845 4.0368932,16.861165 4.0368932,16.6572816 L4.0368932,13.3033981 Z M1.39660194,14.7101942 C1.2131068,15.2708738 0.825728155,15.6786408 0.489320388,16.0252427 C0.346601942,16.1679612 0.244660194,16.2902913 0.244660194,16.4533981 C0.244660194,16.738835 0.366990291,16.9427184 0.509708738,16.9427184 C0.713592233,16.9427184 0.927669903,16.6776699 1.11116505,16.4126214 C1.48834951,15.8519417 1.71262136,15.3320388 1.71262136,14.9140777 C1.71262136,14.8325243 1.70242718,14.7509709 1.68203883,14.6694175 C1.66165049,14.5980583 1.61067961,14.5470874 1.55970874,14.5470874 C1.45776699,14.5470874 1.41699029,14.6286408 1.39660194,14.7101942 Z M5.43349515,14.5980583 C5.74951456,15.0669903 6.2184466,15.7601942 6.56504854,16.3616505 C6.72815534,16.6572816 6.91165049,16.8305825 7.05436893,16.8305825 C7.2684466,16.8305825 7.37038835,16.626699 7.37038835,16.4330097 C7.37038835,16.2393204 7.28883495,15.9946602 7.1461165,15.7703883 C6.79951456,15.2300971 6.2592233,14.7509709 5.65776699,14.4043689 C5.61699029,14.3839806 5.57621359,14.3737864 5.54563107,14.3737864 C5.47427184,14.3737864 5.39271845,14.4247573 5.39271845,14.5063107 C5.39271845,14.526699 5.40291262,14.5572816 5.43349515,14.5980583 Z" id="Shape" fill="#000000" opacity="0.2"></path>
                            <path d="M11.5092233,11.2033981 C11.8558252,11.488835 12.2941748,11.8660194 12.6101942,12.1106796 C12.7121359,12.192233 12.834466,12.2126214 12.9364078,12.2126214 C13.1402913,12.2126214 13.242233,12.0597087 13.242233,11.8762136 C13.242233,11.6621359 13.0893204,11.4276699 12.773301,11.2747573 C12.3553398,11.0708738 12.0087379,11.0097087 11.6213592,10.9893204 C11.5092233,10.9893204 11.4582524,11.0300971 11.4582524,11.1014563 C11.4582524,11.1320388 11.4684466,11.1728155 11.5092233,11.2033981 Z M11.8864078,13.6703883 C11.3970874,13.4563107 10.8160194,13.3849515 10.6936893,13.3849515 C10.6223301,13.3849515 10.5509709,13.4257282 10.5509709,13.4970874 C10.5509709,13.5378641 10.5917476,13.5990291 10.6529126,13.65 C10.9281553,13.8538835 11.4684466,14.2616505 11.7334951,14.465534 C11.9475728,14.6286408 11.9883495,14.6592233 12.1616505,14.6592233 C12.3553398,14.6592233 12.4980583,14.5674757 12.4980583,14.3635922 C12.4980583,14.0985437 12.3553398,13.8742718 11.8864078,13.6703883 Z M11.2747573,17.2281553 C11.2747573,17.2995146 11.4174757,17.5441748 11.723301,17.8194175 C11.9169903,18.0029126 12.0087379,18.0334951 12.0902913,18.0334951 C12.1616505,18.0334951 12.2737864,17.9723301 12.426699,17.85 C12.5490291,17.7582524 12.7834951,17.6257282 12.9771845,17.5135922 C13.7417476,17.0854369 14.5572816,16.5349515 15.3932039,15.8519417 C16.3514563,15.0364078 17.2485437,14.0985437 17.7684466,13.1606796 C17.788835,13.1199029 17.7990291,13.0893204 17.7990291,13.0587379 C17.7990291,12.9669903 17.7174757,12.8956311 17.6359223,12.8956311 C17.5951456,12.8956311 17.5543689,12.9160194 17.5033981,12.9771845 C16.8101942,13.823301 15.9538835,14.6184466 15.0466019,15.3014563 C14.1087379,16.0354369 13.0995146,16.6368932 12.2432039,17.034466 C12.1208738,17.0956311 11.9883495,17.1364078 11.8864078,17.1364078 C11.6417476,17.1364078 11.4684466,17.0650485 11.3970874,17.0650485 C11.315534,17.0650485 11.2747573,17.1262136 11.2747573,17.2281553 Z" id="Shape" fill="#000000"></path>
                        </g>
                        <use id="Rectangle" stroke="#0099F7" mask="url(#mask-5)" stroke-dasharray="1.25,1.25" xlink:href="#path-4"></use>
                    </g>
                </g>
            </g>
        </g>
    </g>
</svg>